<svg width="21" height="21" viewBox="0 0 21 21" fill="none" xmlns="http://www.w3.org/2000/svg">
<g clip-path="url(#clip0_6512_2416)">
<path d="M17.1272 3.843C16.1939 2.90967 15.1161 2.18744 13.8939 1.67633C12.6717 1.16522 11.3939 0.909666 10.0605 0.909666C8.72721 0.909666 7.44944 1.16522 6.22721 1.67633C5.00499 2.18744 3.92721 2.90967 2.99388 3.843C2.06055 4.77633 1.33832 5.85411 0.827214 7.07633C0.316102 8.29856 0.0605469 9.57633 0.0605469 10.9097C0.0605469 12.243 0.316102 13.5208 0.827214 14.743C1.33832 15.9652 2.06055 17.043 2.99388 17.9763C3.92721 18.9097 5.00499 19.6319 6.22721 20.143C7.44944 20.6541 8.72721 20.9097 10.0605 20.9097C11.3939 20.9097 12.6717 20.6541 13.8939 20.143C15.1161 19.6319 16.1939 18.9097 17.1272 17.9763C18.0605 17.043 18.7828 15.9652 19.2939 14.743C19.805 13.5208 20.0605 12.243 20.0605 10.9097C20.0605 9.57633 19.805 8.29856 19.2939 7.07633C18.7828 5.85411 18.0605 4.77633 17.1272 3.843ZM5.06055 18.1763C5.28277 16.9763 5.86055 15.9763 6.79388 15.1763C7.72721 14.3763 8.8161 13.9763 10.0605 13.9763C11.305 13.9763 12.3939 14.3763 13.3272 15.1763C14.2605 15.9763 14.8383 16.9763 15.0605 18.1763C13.5494 19.1986 11.8828 19.7097 10.0605 19.7097C8.23833 19.7097 6.57166 19.1986 5.06055 18.1763ZM6.86055 9.643C6.86055 8.75411 7.17166 7.99856 7.79388 7.37633C8.4161 6.75411 9.17166 6.443 10.0605 6.443C10.9494 6.443 11.705 6.75411 12.3272 7.37633C12.9494 7.99856 13.2605 8.75411 13.2605 9.643C13.2605 10.5319 12.9494 11.2874 12.3272 11.9097C11.705 12.5319 10.9494 12.843 10.0605 12.843C9.17166 12.843 8.4161 12.5319 7.79388 11.9097C7.17166 11.2874 6.86055 10.5319 6.86055 9.643ZM16.0605 17.3763C15.7494 16.2208 15.1494 15.243 14.2605 14.443C13.7272 13.9541 13.1272 13.5763 12.4605 13.3097C13.0383 12.9097 13.505 12.3874 13.8605 11.743C14.2161 11.0986 14.3939 10.3874 14.3939 9.60967C14.3939 8.83189 14.205 8.10967 13.8272 7.443C13.4494 6.77633 12.9272 6.25411 12.2605 5.87633C11.5939 5.49856 10.8605 5.30967 10.0605 5.30967C9.26055 5.30967 8.52721 5.49856 7.86055 5.87633C7.19388 6.25411 6.67166 6.77633 6.29388 7.443C5.9161 8.10967 5.72721 8.83189 5.72721 9.60967C5.72721 10.3874 5.90499 11.0986 6.26055 11.743C6.6161 12.3874 7.08277 12.9097 7.66055 13.3097C6.99388 13.5763 6.39388 13.9541 5.86055 14.443C4.97166 15.243 4.37166 16.2208 4.06055 17.3763C3.17166 16.5763 2.48277 15.6097 1.99388 14.4763C1.50499 13.343 1.26055 12.1541 1.26055 10.9097C1.26055 9.30967 1.64944 7.83189 2.42721 6.47633C3.20499 5.12078 4.27166 4.05411 5.62721 3.27633C6.98277 2.49856 8.46055 2.10967 10.0605 2.10967C11.6605 2.10967 13.1383 2.49856 14.4939 3.27633C15.8494 4.05411 16.9161 5.12078 17.6939 6.47633C18.4717 7.83189 18.8605 9.30967 18.8605 10.9097C18.8605 12.1541 18.6161 13.343 18.1272 14.4763C17.6383 15.6097 16.9494 16.5763 16.0605 17.3763Z" fill="#5751E1"/>
</g>
<defs>
<clipPath id="clip0_6512_2416">
<rect width="20" height="20" fill="white" transform="matrix(1 0 0 -1 0.0605469 20.9097)"/>
</clipPath>
</defs>
</svg>
