<svg width="20" height="21" viewBox="0 0 20 21" fill="none" xmlns="http://www.w3.org/2000/svg">
<g clip-path="url(#clip0_6512_2413)">
<path d="M17.4 2.443H15.6V1.50967C15.6 1.33189 15.5444 1.18744 15.4333 1.07633C15.3222 0.965223 15.1778 0.909666 15 0.909666C14.8222 0.909666 14.6778 0.965223 14.5667 1.07633C14.4556 1.18744 14.4 1.33189 14.4 1.50967V2.443H5.6V1.50967C5.6 1.33189 5.54444 1.18744 5.43333 1.07633C5.32222 0.965223 5.17778 0.909666 5 0.909666C4.82222 0.909666 4.67778 0.965223 4.56667 1.07633C4.45556 1.18744 4.4 1.33189 4.4 1.50967V2.443H2.6C1.88889 2.443 1.27778 2.69855 0.766667 3.20967C0.255556 3.72078 0 4.33189 0 5.043V18.3097C0 19.0208 0.255556 19.6319 0.766667 20.143C1.27778 20.6541 1.88889 20.9097 2.6 20.9097H17.4C18.1111 20.9097 18.7222 20.6541 19.2333 20.143C19.7444 19.6319 20 19.0208 20 18.3097V5.043C20 4.33189 19.7444 3.72078 19.2333 3.20967C18.7222 2.69855 18.1111 2.443 17.4 2.443ZM2.6 3.70967H4.4V4.37633C4.4 4.50967 4.45556 4.643 4.56667 4.77633C4.67778 4.90967 4.82222 4.97633 5 4.97633C5.17778 4.97633 5.32222 4.90967 5.43333 4.77633C5.54444 4.643 5.6 4.50967 5.6 4.37633V3.70967H14.4V4.37633C14.4 4.50967 14.4556 4.643 14.5667 4.77633C14.6778 4.90967 14.8222 4.97633 15 4.97633C15.1778 4.97633 15.3222 4.90967 15.4333 4.77633C15.5444 4.643 15.6 4.50967 15.6 4.37633V3.70967H17.4C17.8 3.70967 18.1222 3.843 18.3667 4.10967C18.6111 4.37633 18.7333 4.68744 18.7333 5.043V6.50967H1.26667V5.043C1.26667 4.68744 1.38889 4.37633 1.63333 4.10967C1.87778 3.843 2.2 3.70967 2.6 3.70967ZM17.4 19.643H2.6C2.2 19.643 1.87778 19.5208 1.63333 19.2763C1.38889 19.0319 1.26667 18.7097 1.26667 18.3097V7.77633H18.7333V18.3097C18.7333 18.7097 18.6111 19.0319 18.3667 19.2763C18.1222 19.5208 17.8 19.643 17.4 19.643Z" fill="#5751E1"/>
</g>
<defs>
<clipPath id="clip0_6512_2413">
<rect width="20" height="20" fill="white" transform="matrix(1 0 0 -1 0 20.9097)"/>
</clipPath>
</defs>
</svg>
