<svg width="18" height="19" viewBox="0 0 18 19" fill="none" xmlns="http://www.w3.org/2000/svg">
<g clip-path="url(#clip0_6512_6104)">
<path d="M6.18 1.41997C5.06 1.41997 4.02 1.69997 3.06 2.25997C2.1 2.81997 1.35 3.56997 0.81 4.50997C0.27 5.44997 0 6.47997 0 7.59997C0 8.99997 0.94 11.16 2.82 14.08C3.82 15.56 4.84 16.94 5.88 18.22C5.96 18.3 6.06 18.34 6.18 18.34C6.3 18.34 6.4 18.3 6.48 18.22C7.52 16.94 8.54 15.56 9.54 14.08C11.42 11.16 12.36 8.99997 12.36 7.59997C12.36 6.47997 12.09 5.44997 11.55 4.50997C11.01 3.56997 10.26 2.81997 9.3 2.25997C8.34 1.69997 7.3 1.41997 6.18 1.41997ZM6.18 17.38C4.98 15.86 3.92 14.4 3 13C1.48 10.56 0.72 8.75997 0.72 7.59997C0.72 6.63997 0.96 5.73997 1.44 4.89997C1.92 4.05997 2.58 3.38997 3.42 2.88997C4.26 2.38997 5.18 2.13997 6.18 2.13997C7.18 2.13997 8.1 2.38997 8.94 2.88997C9.78 3.38997 10.44 4.05997 10.92 4.89997C11.4 5.73997 11.64 6.63997 11.64 7.59997C11.64 8.75997 10.88 10.56 9.36 13C8.44 14.4 7.38 15.86 6.18 17.38ZM6.18 4.89997C5.5 4.89997 4.91 5.14997 4.41 5.64997C3.91 6.14997 3.66 6.74997 3.66 7.44997C3.66 8.14997 3.91 8.73997 4.41 9.21997C4.91 9.69997 5.5 9.93997 6.18 9.93997C6.86 9.93997 7.45 9.69997 7.95 9.21997C8.45 8.73997 8.7 8.14997 8.7 7.44997C8.7 6.74997 8.45 6.14997 7.95 5.64997C7.45 5.14997 6.86 4.89997 6.18 4.89997ZM6.18 9.21997C5.66 9.21997 5.23 9.04997 4.89 8.70997C4.55 8.36997 4.38 7.94997 4.38 7.44997C4.38 6.94997 4.55 6.51997 4.89 6.15997C5.23 5.79997 5.66 5.61997 6.18 5.61997C6.7 5.61997 7.13 5.79997 7.47 6.15997C7.81 6.51997 7.98 6.94997 7.98 7.44997C7.98 7.94997 7.81 8.36997 7.47 8.70997C7.13 9.04997 6.7 9.21997 6.18 9.21997Z" fill="#5751E1"/>
</g>
<defs>
<clipPath id="clip0_6512_6104">
<rect width="18" height="18" fill="white" transform="matrix(1 0 0 -1 0 18.88)"/>
</clipPath>
</defs>
</svg>
