<svg width="30" height="27" viewBox="0 0 30 27" fill="none" xmlns="http://www.w3.org/2000/svg">
<g clip-path="url(#clip0_6512_1857)">
<g clip-path="url(#clip1_6512_1857)">
<path d="M30 14.2034C29.4937 14.5803 29.2405 14.9572 28.9873 15.0829C27.7215 15.5855 26.4557 16.088 25.1899 16.5906C23.2911 17.2188 22.1519 18.4753 21.8987 20.4856C21.6456 22.119 21.3924 23.7524 21.0127 25.3858C20.8861 25.8883 20.5063 26.6422 20.1266 26.7679C19.3671 26.8935 19.3671 26.014 19.2405 25.5114C18.7342 24.0037 18.2278 22.3703 17.8481 20.8625C17.2152 18.7266 15.8228 17.5958 13.5443 17.5958C12.6582 17.5958 11.8987 17.4701 11.0127 17.3445C10.5063 17.3445 10.2532 17.0932 10 16.8419C10.2532 16.5906 10.3797 16.2137 10.6329 16.088C11.8987 15.5855 13.2911 15.0829 14.557 14.7059C15.8228 14.329 16.7089 13.4495 16.962 12.193C17.4684 10.1828 17.8481 8.17244 18.3544 6.28777C18.6076 5.65954 18.3544 4.78003 19.2405 4.78003C20.1266 4.78003 20 5.5339 20.1266 6.03648C20.5063 7.79551 20.8861 9.42889 21.3924 11.1879C22.0253 13.4495 22.5316 13.8264 24.9367 13.8264C26.2025 13.8264 27.5949 13.7008 28.8608 13.7008C28.9873 13.7008 29.3671 13.9521 30 14.2034Z" fill="#CECCFD"/>
<path d="M10 5.49171C9.74684 5.68018 9.62025 5.86865 9.49367 5.93147C8.86076 6.18276 8.22785 6.43405 7.59494 6.68534C6.64557 6.99945 6.07595 7.62768 5.94937 8.63284C5.82278 9.44953 5.6962 10.2662 5.50633 11.0829C5.44304 11.3342 5.25316 11.7111 5.06329 11.7739C4.68354 11.8368 4.68354 11.397 4.62025 11.1457C4.36709 10.3919 4.11392 9.57517 3.92405 8.8213C3.60759 7.75332 2.91139 7.18792 1.77215 7.18792C1.32911 7.18792 0.949367 7.1251 0.506329 7.06228C0.253165 7.06228 0.126582 6.93663 0 6.81099C0.126582 6.68534 0.189873 6.49687 0.316456 6.43405C0.949367 6.18276 1.64557 5.93147 2.27848 5.743C2.91139 5.55454 3.35443 5.11478 3.48101 4.48655C3.73418 3.4814 3.92405 2.47624 4.17722 1.5339C4.3038 1.21979 4.17722 0.780029 4.62025 0.780029C5.06329 0.780029 5 1.15696 5.06329 1.40825C5.25316 2.28777 5.44304 3.10446 5.6962 3.98398C6.01266 5.11478 6.26582 5.30325 7.46835 5.30325C8.10127 5.30325 8.79747 5.24042 9.43038 5.24042C9.49367 5.24042 9.68354 5.36607 10 5.49171Z" fill="#CECCFD"/>
</g>
</g>
<defs>
<clipPath id="clip0_6512_1857">
<rect width="30" height="26" fill="white" transform="translate(0 0.780029)"/>
</clipPath>
<clipPath id="clip1_6512_1857">
<rect width="30" height="26" fill="white" transform="translate(0 0.780029)"/>
</clipPath>
</defs>
</svg>
