<svg width="56" height="56" viewBox="0 0 56 56" fill="none" xmlns="http://www.w3.org/2000/svg">
<g clip-path="url(#clip0_6512_1854)">
<path d="M47.9736 8.89669H54.3902C54.7569 8.89669 55.0319 8.77447 55.2152 8.53003C55.3986 8.28558 55.4902 8.04114 55.4902 7.7967V1.38003C55.4902 1.01336 55.3986 0.738361 55.2152 0.555027C55.0319 0.371696 54.7569 0.280029 54.3902 0.280029H47.9736C47.7291 0.280029 47.4847 0.371696 47.2402 0.555027C46.9958 0.738361 46.8736 1.01336 46.8736 1.38003V3.39669H32.2069V1.38003C32.2069 1.01336 32.1152 0.738361 31.9319 0.555027C31.7486 0.371696 31.4736 0.280029 31.1069 0.280029H24.8736C24.5069 0.280029 24.2319 0.371696 24.0486 0.555027C23.8652 0.738361 23.7736 1.01336 23.7736 1.38003V3.39669H9.1069V1.38003C9.1069 1.01336 8.98468 0.738361 8.74023 0.555027C8.49579 0.371696 8.25135 0.280029 8.0069 0.280029H1.59023C1.22357 0.280029 0.948568 0.371696 0.765234 0.555027C0.581901 0.738361 0.490234 1.01336 0.490234 1.38003V7.7967C0.490234 8.04114 0.581901 8.28558 0.765234 8.53003C0.948568 8.77447 1.22357 8.89669 1.59023 8.89669H8.0069C8.25135 8.89669 8.49579 8.77447 8.74023 8.53003C8.98468 8.28558 9.1069 8.04114 9.1069 7.7967V5.59669H17.9069C14.7291 7.06336 11.9791 9.14114 9.6569 11.83C7.82357 13.9078 6.41801 16.23 5.44023 18.7967C4.46246 21.3634 3.91246 23.9911 3.79023 26.68H1.59023C1.22357 26.68 0.948568 26.8023 0.765234 27.0467C0.581901 27.2911 0.490234 27.5356 0.490234 27.78V34.1967C0.490234 34.4411 0.581901 34.6856 0.765234 34.93C0.948568 35.1745 1.22357 35.2967 1.59023 35.2967H8.0069C8.25135 35.2967 8.49579 35.1745 8.74023 34.93C8.98468 34.6856 9.1069 34.4411 9.1069 34.1967V27.78C9.1069 27.5356 8.98468 27.2911 8.74023 27.0467C8.49579 26.8023 8.25135 26.68 8.0069 26.68H5.8069C6.05135 23.38 6.96801 20.2634 8.5569 17.33C10.1458 14.3967 12.2541 11.9523 14.8819 9.9967C17.5097 8.04114 20.4736 6.69669 23.7736 5.96336V7.7967C23.7736 8.04114 23.8652 8.28558 24.0486 8.53003C24.2319 8.77447 24.5069 8.89669 24.8736 8.89669H31.1069C31.4736 8.89669 31.7486 8.77447 31.9319 8.53003C32.1152 8.28558 32.2069 8.04114 32.2069 7.7967V5.96336C35.5069 6.69669 38.4708 8.04114 41.0986 9.9967C43.7263 11.9523 45.8347 14.3967 47.4236 17.33C49.0125 20.2634 49.9291 23.38 50.1736 26.68H47.9736C47.7291 26.68 47.4847 26.8023 47.2402 27.0467C46.9958 27.2911 46.8736 27.5356 46.8736 27.78V34.1967C46.8736 34.4411 46.9958 34.6856 47.2402 34.93C47.4847 35.1745 47.7291 35.2967 47.9736 35.2967H54.3902C54.7569 35.2967 55.0319 35.1745 55.2152 34.93C55.3986 34.6856 55.4902 34.4411 55.4902 34.1967V27.78C55.4902 27.5356 55.3986 27.2911 55.2152 27.0467C55.0319 26.8023 54.7569 26.68 54.3902 26.68H52.1902C52.068 23.9911 51.518 21.3634 50.5402 18.7967C49.5625 16.23 48.1569 13.9078 46.3236 11.83C44.0013 9.14114 41.2513 7.06336 38.0736 5.59669H46.8736V7.7967C46.8736 8.04114 46.9958 8.28558 47.2402 8.53003C47.4847 8.77447 47.7291 8.89669 47.9736 8.89669ZM6.9069 6.69669H2.69023V2.48003H6.9069V6.69669ZM6.9069 33.0967H2.69023V28.88H6.9069V33.0967ZM53.2902 33.0967H49.0736V28.88H53.2902V33.0967ZM30.1902 6.69669H25.7902V2.48003H30.1902V6.69669ZM49.0736 2.48003H53.2902V6.69669H49.0736V2.48003ZM28.9069 12.1967C28.6625 11.83 28.3569 11.6467 27.9902 11.6467C27.6236 11.6467 27.318 11.83 27.0736 12.1967L22.6736 20.2634C22.4291 20.5078 22.368 20.7828 22.4902 21.0884C22.6125 21.3939 22.7958 21.6078 23.0402 21.73C23.2847 21.8522 23.5597 21.8828 23.8652 21.8217C24.1708 21.7606 24.3847 21.5467 24.5069 21.18L26.8902 16.78V24.6634C26.1569 24.9078 25.5458 25.3661 25.0569 26.0384C24.568 26.7106 24.3236 27.505 24.3236 28.4217C24.3236 29.3384 24.6902 30.1328 25.4236 30.805C26.1569 31.4773 27.0125 31.8134 27.9902 31.8134C28.968 31.8134 29.8236 31.4773 30.5569 30.805C31.2902 30.1328 31.6569 29.3384 31.6569 28.4217C31.6569 27.505 31.4125 26.7106 30.9236 26.0384C30.4347 25.3661 29.8236 24.9078 29.0902 24.6634V16.78L36.4236 30.1634C33.9791 32.73 32.3902 35.7245 31.6569 39.1467H24.3236C23.5902 35.7245 22.0013 32.73 19.5569 30.1634L20.8402 27.9634C20.9625 27.7189 20.9625 27.4439 20.8402 27.1384C20.718 26.8328 20.5347 26.6189 20.2902 26.4967C20.0458 26.3745 19.8013 26.3439 19.5569 26.405C19.3125 26.4661 19.068 26.6189 18.8236 26.8634L17.3569 29.7967C16.9902 30.2856 17.0513 30.7745 17.5402 31.2634C19.8625 33.3411 21.3902 35.9689 22.1236 39.1467H21.0236C20.168 39.1467 19.4347 39.4523 18.8236 40.0634C18.2125 40.6745 17.9069 41.4689 17.9069 42.4467C17.9069 43.0578 18.0597 43.6078 18.3652 44.0967C18.6708 44.5856 19.068 44.9523 19.5569 45.1967V54.18C19.5569 54.5467 19.6791 54.8217 19.9236 55.005C20.168 55.1884 20.443 55.28 20.7486 55.28C21.0541 55.28 21.2986 55.1884 21.4819 55.005C21.6652 54.8217 21.7569 54.5467 21.7569 54.18V45.5634H34.2236V54.18C34.2236 54.5467 34.3152 54.8217 34.4986 55.005C34.6819 55.1884 34.9263 55.28 35.2319 55.28C35.5375 55.28 35.8125 55.1884 36.0569 55.005C36.3013 54.8217 36.4236 54.5467 36.4236 54.18V45.1967C36.9125 44.9523 37.3097 44.5856 37.6152 44.0967C37.9208 43.6078 38.0736 43.0578 38.0736 42.4467C38.0736 41.4689 37.768 40.6745 37.1569 40.0634C36.5458 39.4523 35.8125 39.1467 34.9569 39.1467H33.8569C34.5902 35.9689 36.118 33.3411 38.4402 31.2634C38.9291 30.7745 38.9902 30.2856 38.6236 29.7967L28.9069 12.1967ZM27.9902 29.7967C27.6236 29.7967 27.2875 29.6439 26.9819 29.3384C26.6763 29.0328 26.5236 28.6661 26.5236 28.2384C26.5236 27.8106 26.6763 27.4439 26.9819 27.1384C27.2875 26.8328 27.6236 26.68 27.9902 26.68C28.3569 26.68 28.693 26.8328 28.9986 27.1384C29.3041 27.4439 29.4569 27.8106 29.4569 28.2384C29.4569 28.6661 29.3041 29.0328 28.9986 29.3384C28.693 29.6439 28.3569 29.7967 27.9902 29.7967ZM36.0569 42.4467C36.0569 42.6911 35.9347 42.9356 35.6902 43.18C35.4458 43.4245 35.2013 43.5467 34.9569 43.5467H21.0236C20.7791 43.5467 20.5347 43.4245 20.2902 43.18C20.0458 42.9356 19.9236 42.6606 19.9236 42.355C19.9236 42.0495 20.0458 41.805 20.2902 41.6217C20.5347 41.4384 20.7791 41.3467 21.0236 41.3467H34.9569C35.2013 41.3467 35.4458 41.4384 35.6902 41.6217C35.9347 41.805 36.0569 42.08 36.0569 42.4467ZM21.5736 25.2134C21.9402 25.2134 22.2152 25.1217 22.3986 24.9384C22.5819 24.755 22.6736 24.5106 22.6736 24.205C22.6736 23.8995 22.5819 23.6245 22.3986 23.38C22.2152 23.1356 21.9708 23.0134 21.6652 23.0134C21.3597 23.0134 21.0847 23.1356 20.8402 23.38C20.5958 23.6245 20.4736 23.8995 20.4736 24.205C20.4736 24.5106 20.5958 24.755 20.8402 24.9384C21.0847 25.1217 21.3291 25.2134 21.5736 25.2134Z" fill="#7F7E97"/>
</g>
<defs>
<clipPath id="clip0_6512_1854">
<rect width="55.02" height="55" fill="white" transform="matrix(1 0 0 -1 0.480469 55.28)"/>
</clipPath>
</defs>
</svg>
