<svg width="56" height="56" viewBox="0 0 56 56" fill="none" xmlns="http://www.w3.org/2000/svg">
<g clip-path="url(#clip0_6512_1865)">
<path d="M55.4902 27.78C55.4902 22.7689 54.268 18.155 51.8236 13.9384C49.3791 9.72169 46.0486 6.39114 41.8319 3.94669C37.6152 1.50225 33.0625 0.280029 28.1736 0.280029C23.2847 0.280029 18.7013 1.44114 14.4236 3.76336H11.1236V0.280029H5.8069V11.4634C2.26246 16.3522 0.490234 21.7911 0.490234 27.78C0.490234 32.7911 1.71246 37.405 4.1569 41.6217C6.60135 45.8384 9.9319 49.1689 14.1486 51.6134C18.3652 54.0578 22.9791 55.28 27.9902 55.28C31.4125 55.28 34.6513 54.6689 37.7069 53.4467C39.6625 54.6689 41.7402 55.28 43.9402 55.28C46.7513 55.28 49.2569 54.3634 51.4569 52.53L50.3569 51.0634C48.5236 52.6523 46.3847 53.4467 43.9402 53.4467C41.2513 53.4467 38.9597 52.4995 37.0652 50.605C35.1708 48.7106 34.2236 46.4189 34.2236 43.73C34.2236 41.0411 35.1708 38.7495 37.0652 36.855C38.9597 34.9606 41.2513 34.0134 43.9402 34.0134C46.6291 34.0134 48.9208 34.9606 50.8152 36.855C52.7097 38.7495 53.6569 41.0411 53.6569 43.73C53.6569 46.0523 52.9847 48.0689 51.6402 49.78L52.9236 51.0634C54.6347 48.8634 55.4902 46.4189 55.4902 43.73C55.4902 41.53 54.8791 39.4523 53.6569 37.4967C54.8791 34.4411 55.4902 31.2023 55.4902 27.78ZM14.6069 9.08003H16.4402V21.5467H14.6069V9.08003ZM11.1236 5.59669H12.9569V21.5467H11.1236V5.59669ZM7.64023 2.11336H9.29023V21.5467H7.64023V2.11336ZM27.0736 53.4467C22.6736 53.3245 18.6097 52.1328 14.8819 49.8717C11.1541 47.6106 8.15968 44.6161 5.89857 40.8884C3.63746 37.1606 2.44579 33.0967 2.32357 28.6967H27.0736V53.4467ZM27.0736 26.8634H2.32357C2.44579 22.5856 3.6069 18.5522 5.8069 14.7634V23.38H25.2402V14.3967H21.7569V10.9134H18.2736V7.43003H14.6069V5.78003C18.518 3.45781 22.6736 2.23558 27.0736 2.11336V26.8634ZM18.2736 21.5467V12.7467H19.9236V21.5467H18.2736ZM21.7569 21.5467V16.23H23.5902V21.5467H21.7569ZM53.6569 26.8634H46.1402L52.5569 20.4467C53.2902 22.5245 53.6569 24.6634 53.6569 26.8634ZM49.2569 13.2967L39.3569 23.1967L40.6402 24.48L50.1736 14.7634C50.9069 15.9856 51.518 17.2078 52.0069 18.43L43.5736 26.8634H38.0736L39.1736 25.7634L38.0736 24.48L35.6902 26.8634H30.1902L46.8736 10.18C47.7291 11.1578 48.5236 12.1967 49.2569 13.2967ZM28.9069 2.11336C31.1069 2.11336 33.2458 2.48003 35.3236 3.21336L28.9069 9.63003V2.11336ZM28.9069 20.08L39.7236 9.44669L38.4402 8.16336L28.9069 17.6967V12.1967L37.3402 3.76336C38.5625 4.25225 39.7847 4.86336 41.0069 5.59669L39.5402 7.06336L40.8236 8.34669L42.4736 6.51336C43.5736 7.2467 44.6125 8.04114 45.5902 8.89669L28.9069 25.58V20.08ZM43.9402 32.18C41.8625 32.18 39.9375 32.6995 38.1652 33.7384C36.393 34.7773 34.9875 36.1828 33.9486 37.955C32.9097 39.7273 32.3902 41.6523 32.3902 43.73C32.3902 45.3189 32.7263 46.8467 33.3986 48.3134C34.0708 49.78 34.9569 51.0634 36.0569 52.1634C33.7347 53.0189 31.3513 53.4467 28.9069 53.4467V28.6967H53.6569C53.6569 31.1411 53.2291 33.5245 52.3736 35.8467C51.2736 34.7467 49.9902 33.8606 48.5236 33.1884C47.0569 32.5161 45.5291 32.18 43.9402 32.18ZM11.4902 43.18L22.1236 32.5467L23.2236 33.6467L12.5902 44.4634L11.4902 43.18ZM20.8402 39.33C20.1069 39.33 19.4958 39.5745 19.0069 40.0634C18.518 40.5523 18.2736 41.1634 18.2736 41.8967C18.2736 42.63 18.518 43.2717 19.0069 43.8217C19.4958 44.3717 20.1069 44.6467 20.8402 44.6467C21.5736 44.6467 22.2152 44.3717 22.7652 43.8217C23.3152 43.2717 23.5902 42.63 23.5902 41.8967C23.5902 41.1634 23.3152 40.5523 22.7652 40.0634C22.2152 39.5745 21.5736 39.33 20.8402 39.33ZM20.8402 42.8134C20.5958 42.8134 20.3819 42.7217 20.1986 42.5384C20.0152 42.355 19.9236 42.1411 19.9236 41.8967C19.9236 41.6523 20.0152 41.4689 20.1986 41.3467C20.3819 41.2245 20.5958 41.1634 20.8402 41.1634C21.0847 41.1634 21.2986 41.2245 21.4819 41.3467C21.6652 41.4689 21.7569 41.6523 21.7569 41.8967C21.7569 42.1411 21.6652 42.355 21.4819 42.5384C21.2986 42.7217 21.0847 42.8134 20.8402 42.8134ZM13.8736 32.18C13.1402 32.18 12.4986 32.455 11.9486 33.005C11.3986 33.555 11.1236 34.1967 11.1236 34.93C11.1236 35.6634 11.3986 36.2745 11.9486 36.7634C12.4986 37.2523 13.1402 37.4967 13.8736 37.4967C14.6069 37.4967 15.218 37.2523 15.7069 36.7634C16.1958 36.2745 16.4402 35.6634 16.4402 34.93C16.4402 34.1967 16.1958 33.555 15.7069 33.005C15.218 32.455 14.6069 32.18 13.8736 32.18ZM13.8736 35.8467C13.6291 35.8467 13.4152 35.755 13.2319 35.5717C13.0486 35.3884 12.9569 35.1745 12.9569 34.93C12.9569 34.6856 13.0486 34.4717 13.2319 34.2884C13.4152 34.105 13.6291 34.0134 13.8736 34.0134C14.118 34.0134 14.3013 34.105 14.4236 34.2884C14.5458 34.4717 14.6069 34.6856 14.6069 34.93C14.6069 35.1745 14.5458 35.3884 14.4236 35.5717C14.3013 35.755 14.118 35.8467 13.8736 35.8467ZM43.9402 42.8134C43.4513 42.8134 43.0236 42.6606 42.6569 42.355C42.2902 42.0495 42.1069 41.6523 42.1069 41.1634C42.1069 40.6745 42.2902 40.2467 42.6569 39.88C43.0236 39.5134 43.4513 39.33 43.9402 39.33C44.4291 39.33 44.8569 39.5134 45.2236 39.88C45.5902 40.2467 45.7736 40.6745 45.7736 41.1634H47.4236C47.4236 40.3078 47.1791 39.5745 46.6902 38.9634C46.2013 38.3523 45.5902 37.9245 44.8569 37.68V35.8467H43.0236V37.68C42.2902 37.9245 41.6791 38.3523 41.1902 38.9634C40.7013 39.5745 40.4569 40.3384 40.4569 41.255C40.4569 42.1717 40.793 42.9661 41.4652 43.6384C42.1375 44.3106 42.9625 44.6467 43.9402 44.6467C44.4291 44.6467 44.8569 44.83 45.2236 45.1967C45.5902 45.5634 45.7736 45.9911 45.7736 46.48C45.7736 46.9689 45.5902 47.3661 45.2236 47.6717C44.8569 47.9773 44.4291 48.13 43.9402 48.13C43.4513 48.13 43.0236 47.9773 42.6569 47.6717C42.2902 47.3661 42.1069 46.9689 42.1069 46.48H40.4569C40.4569 47.2134 40.7013 47.9161 41.1902 48.5884C41.6791 49.2606 42.2902 49.6578 43.0236 49.78V51.7967H44.8569V49.78C45.5902 49.6578 46.2013 49.2606 46.6902 48.5884C47.1791 47.9161 47.4236 47.1523 47.4236 46.2967C47.4236 45.4411 47.0875 44.6467 46.4152 43.9134C45.743 43.18 44.918 42.8134 43.9402 42.8134ZM50.1736 42.8134H52.0069V44.6467H50.1736V42.8134ZM36.0569 42.8134H37.7069V44.6467H36.0569V42.8134Z" fill="#7F7E97"/>
</g>
<defs>
<clipPath id="clip0_6512_1865">
<rect width="55.02" height="55" fill="white" transform="matrix(1 0 0 -1 0.480469 55.28)"/>
</clipPath>
</defs>
</svg>
