<svg width="56" height="56" viewBox="0 0 56 56" fill="none" xmlns="http://www.w3.org/2000/svg">
<g clip-path="url(#clip0_6512_1909)">
<path d="M41.0986 48.3133C40.7319 48.3133 40.4875 48.1911 40.3652 47.9467C39.8763 47.0911 39.2041 46.48 38.3486 46.1133L34.4986 44.4633C34.2541 44.4633 34.1013 44.3411 34.0402 44.0967C33.9791 43.8522 33.9791 43.6078 34.0402 43.3633C34.1013 43.1189 34.2541 42.9661 34.4986 42.905C34.743 42.8439 34.9875 42.8744 35.2319 42.9967L38.8986 44.4633C40.1208 45.0744 41.0986 45.93 41.8319 47.03C41.9541 47.2744 41.9847 47.5189 41.9236 47.7633C41.8625 48.0078 41.7402 48.1606 41.5569 48.2217C41.3736 48.2828 41.2208 48.3133 41.0986 48.3133ZM23.4986 48.3133C23.3763 48.3133 23.2236 48.2828 23.0402 48.2217C22.8569 48.1606 22.7347 48.0078 22.6736 47.7633C22.6125 47.5189 22.643 47.2744 22.7652 47.03C23.3763 45.93 24.293 45.0744 25.5152 44.4633L29.3652 42.9967C29.6097 42.8744 29.8236 42.8439 30.0069 42.905C30.1902 42.9661 30.343 43.1189 30.4652 43.3633C30.5875 43.6078 30.5875 43.8217 30.4652 44.005C30.343 44.1883 30.2208 44.3411 30.0986 44.4633L26.2486 46.1133C25.393 46.48 24.7208 47.0911 24.2319 47.9467C23.9875 48.1911 23.743 48.3133 23.4986 48.3133ZM34.8652 44.4633C34.6208 44.4633 34.4069 44.3717 34.2236 44.1883C34.0402 44.005 33.9486 43.7911 33.9486 43.5467V40.6133C33.9486 40.3689 34.0708 40.1244 34.3152 39.88C35.1708 39.2689 35.5986 38.4133 35.5986 37.3133V34.5633C35.5986 33.7078 35.2625 32.9439 34.5902 32.2717C33.918 31.5994 33.1236 31.2633 32.2069 31.2633C31.2902 31.2633 30.4958 31.5994 29.8236 32.2717C29.1513 32.9439 28.8152 33.7078 28.8152 34.5633V37.3133C28.8152 38.4133 29.243 39.2689 30.0986 39.88C30.343 40.1244 30.4652 40.3689 30.4652 40.6133V43.5467C30.4652 43.7911 30.4041 44.005 30.2819 44.1883C30.1597 44.3717 29.9763 44.4633 29.7319 44.4633C29.4875 44.4633 29.2736 44.3717 29.0902 44.1883C28.9069 44.005 28.8152 43.7911 28.8152 43.5467V40.98C27.7152 40.0022 27.1652 38.78 27.1652 37.3133V34.5633C27.1652 33.2189 27.6541 32.0272 28.6319 30.9883C29.6097 29.9494 30.8013 29.43 32.2069 29.43C33.6125 29.43 34.8347 29.9494 35.8736 30.9883C36.9125 32.0272 37.4319 33.2189 37.4319 34.5633V37.3133C37.4319 38.78 36.8208 40.0022 35.5986 40.98V43.5467C35.5986 43.7911 35.5375 44.005 35.4152 44.1883C35.293 44.3717 35.1097 44.4633 34.8652 44.4633ZM33.0319 42.2633C32.6652 42.2633 32.4208 42.1106 32.2986 41.805C32.1763 41.4994 32.2069 41.2244 32.3902 40.98C32.5736 40.7356 32.7263 40.6133 32.8486 40.6133C33.7041 40.4911 34.3763 40.0939 34.8652 39.4217C35.3541 38.7494 35.5986 38.0467 35.5986 37.3133C35.5986 37.0689 35.6902 36.855 35.8736 36.6717C36.0569 36.4883 36.2708 36.3967 36.5152 36.3967C36.7597 36.3967 36.9736 36.4883 37.1569 36.6717C37.3402 36.855 37.4319 37.0689 37.4319 37.3133C37.4319 38.5356 37.0347 39.605 36.2402 40.5217C35.4458 41.4383 34.4375 42.0189 33.2152 42.2633H33.0319ZM28.9986 27.78C28.6319 27.78 28.3875 27.6578 28.2652 27.4133C27.7763 26.5578 27.1041 25.9467 26.2486 25.58L22.3986 23.93C22.2763 23.8078 22.1541 23.6244 22.0319 23.38C21.9097 23.1356 21.9097 22.9217 22.0319 22.7383C22.1541 22.555 22.3069 22.4022 22.4902 22.28C22.6736 22.1578 22.8875 22.1578 23.1319 22.28L26.9819 23.93C28.2041 24.4189 29.1208 25.2744 29.7319 26.4967C29.8541 26.7411 29.8847 26.955 29.8236 27.1383C29.7625 27.3217 29.6402 27.4744 29.4569 27.5967C29.2736 27.7189 29.1208 27.78 28.9986 27.78ZM11.3986 27.78C11.2763 27.78 11.1236 27.7189 10.9402 27.5967C10.7569 27.4744 10.6347 27.3217 10.5736 27.1383C10.5125 26.955 10.543 26.7411 10.6652 26.4967C11.3986 25.2744 12.3763 24.4189 13.5986 23.93L17.2652 22.28C17.5097 22.1578 17.7541 22.1578 17.9986 22.28C18.243 22.4022 18.3958 22.555 18.4569 22.7383C18.518 22.9217 18.518 23.1356 18.4569 23.38C18.3958 23.6244 18.243 23.8078 17.9986 23.93L14.1486 25.58C13.293 25.9467 12.6208 26.5578 12.1319 27.4133C12.0097 27.6578 11.7652 27.78 11.3986 27.78ZM22.7652 23.7467C22.5208 23.7467 22.3069 23.6856 22.1236 23.5633C21.9402 23.4411 21.8486 23.2578 21.8486 23.0133V20.08C21.8486 19.7133 21.9708 19.4689 22.2152 19.3467C23.193 18.6133 23.6819 17.6967 23.6819 16.5967V14.03C23.6819 13.0522 23.3458 12.2272 22.6736 11.555C22.0013 10.8828 21.1763 10.5467 20.1986 10.5467C19.2208 10.5467 18.3958 10.8828 17.7236 11.555C17.0513 12.2272 16.7152 13.0522 16.7152 14.03V16.5967C16.7152 17.6967 17.2041 18.6133 18.1819 19.3467C18.4263 19.4689 18.5486 19.7133 18.5486 20.08V23.0133C18.5486 23.2578 18.4569 23.4411 18.2736 23.5633C18.0902 23.6856 17.8763 23.7467 17.6319 23.7467C17.3875 23.7467 17.1736 23.6856 16.9902 23.5633C16.8069 23.4411 16.7152 23.2578 16.7152 23.0133V20.4467C15.6152 19.4689 15.0652 18.1856 15.0652 16.5967V14.03C15.0652 12.5633 15.5541 11.3411 16.5319 10.3633C17.5097 9.38556 18.7319 8.89667 20.1986 8.89667C21.6652 8.89667 22.8875 9.38556 23.8652 10.3633C24.843 11.3411 25.3319 12.5633 25.3319 14.03V16.5967C25.3319 18.1856 24.7819 19.4689 23.6819 20.4467V23.0133C23.6819 23.2578 23.5902 23.4411 23.4069 23.5633C23.2236 23.6856 23.0097 23.7467 22.7652 23.7467ZM21.1152 21.73C20.6263 21.73 20.3513 21.5467 20.2902 21.18C20.2291 20.8133 20.2597 20.5383 20.3819 20.355C20.5041 20.1717 20.6875 20.0189 20.9319 19.8967C21.6652 19.7744 22.3069 19.4078 22.8569 18.7967C23.4069 18.1856 23.6819 17.4522 23.6819 16.5967C23.6819 16.3522 23.7736 16.1383 23.9569 15.955C24.1402 15.7717 24.3541 15.68 24.5986 15.68C24.843 15.68 25.0263 15.7717 25.1486 15.955C25.2708 16.1383 25.3319 16.3522 25.3319 16.5967C25.3319 17.8189 24.9652 18.9189 24.2319 19.8967C23.4986 20.8744 22.5208 21.4856 21.2986 21.73H21.1152ZM20.1986 31.2633C17.7541 31.2633 15.4625 30.6522 13.3236 29.43C11.1847 28.2078 9.50412 26.5272 8.2819 24.3883C7.05968 22.2494 6.44857 19.9272 6.44857 17.4217C6.44857 14.9161 7.05968 12.6244 8.2819 10.5467C9.50412 8.46889 11.1847 6.81889 13.3236 5.59667C15.4625 4.37445 17.7541 3.76334 20.1986 3.76334C22.643 3.76334 24.9347 4.37445 27.0736 5.59667C29.2125 6.81889 30.893 8.46889 32.1152 10.5467C33.3375 12.6244 33.9486 14.9161 33.9486 17.4217C33.9486 19.9272 33.3375 22.2494 32.1152 24.3883C30.893 26.5272 29.2125 28.2078 27.0736 29.43C24.9347 30.6522 22.643 31.2633 20.1986 31.2633ZM20.1986 5.41334C17.9986 5.41334 15.9819 5.96334 14.1486 7.06334C12.3152 8.16334 10.8486 9.63 9.74857 11.4633C8.64857 13.2967 8.09857 15.3133 8.09857 17.5133C8.09857 19.7133 8.64857 21.73 9.74857 23.5633C10.8486 25.3967 12.3152 26.8328 14.1486 27.8717C15.9819 28.9106 17.9986 29.43 20.1986 29.43C22.3986 29.43 24.4152 28.9106 26.2486 27.8717C28.0819 26.8328 29.5486 25.3967 30.6486 23.5633C31.7486 21.73 32.2986 19.7133 32.2986 17.5133C32.2986 15.3133 31.7486 13.2967 30.6486 11.4633C29.5486 9.63 28.0819 8.16334 26.2486 7.06334C24.4152 5.96334 22.3986 5.41334 20.1986 5.41334ZM42.9319 9.81334C42.443 9.81334 42.1375 9.66056 42.0152 9.355C41.893 9.04945 41.893 8.805 42.0152 8.62167C42.1375 8.43834 42.3208 8.28556 42.5652 8.16334C43.0541 7.91889 43.4208 8.04111 43.6652 8.53V8.71334C43.7875 8.95778 43.7875 9.17167 43.6652 9.355C43.543 9.53834 43.3597 9.69112 43.1152 9.81334H42.9319ZM15.0652 53.63C12.2541 53.63 9.84023 52.6217 7.82357 50.605C5.8069 48.5883 4.79857 46.1133 4.79857 43.18V39.88H1.31523C0.948568 39.88 0.704123 39.7272 0.581901 39.4217C0.459679 39.1161 0.459679 38.78 0.581901 38.4133L6.6319 29.0633C6.75412 28.8189 6.99857 28.6967 7.36523 28.6967C7.7319 28.6967 7.97635 28.8189 8.09857 29.0633L14.1486 38.4133C14.2708 38.78 14.2402 39.1161 14.0569 39.4217C13.8736 39.7272 13.6597 39.88 13.4152 39.88H9.9319V43.18C9.9319 43.4244 9.84023 43.6383 9.6569 43.8217C9.47357 44.005 9.25968 44.0967 9.01523 44.0967C8.77079 44.0967 8.58746 44.005 8.46523 43.8217C8.34301 43.6383 8.2819 43.4244 8.2819 43.18V38.9633C8.2819 38.7189 8.34301 38.505 8.46523 38.3217C8.58746 38.1383 8.77079 38.0467 9.01523 38.0467H11.7652L7.36523 31.08L2.96523 38.0467H5.71523C5.83746 38.0467 5.99023 38.1383 6.17357 38.3217C6.3569 38.505 6.44857 38.7189 6.44857 38.9633V43.18C6.44857 45.6244 7.30412 47.6717 9.01523 49.3217C10.7263 50.9717 12.743 51.7967 15.0652 51.7967C17.0208 51.7967 18.793 51.1856 20.3819 49.9633C20.6263 49.8411 20.8708 49.78 21.1152 49.78C21.3597 49.78 21.543 49.8717 21.6652 50.055C21.7875 50.2383 21.8486 50.4522 21.8486 50.6967C21.8486 50.9411 21.7875 51.1244 21.6652 51.2467L21.4819 51.43C19.6486 52.8967 17.5097 53.63 15.0652 53.63ZM9.56523 47.58C9.32079 47.58 9.07635 47.3967 8.8319 47.03V46.8467C8.70968 46.6022 8.70968 46.3883 8.8319 46.205C8.95412 46.0217 9.13746 45.8689 9.3819 45.7467C9.62635 45.6244 9.84023 45.6244 10.0236 45.7467C10.2069 45.8689 10.3291 46.0522 10.3902 46.2967C10.4513 46.5411 10.4513 46.755 10.3902 46.9383C10.3291 47.1217 10.1763 47.2744 9.9319 47.3967L9.56523 47.58ZM45.1319 26.8633C44.8875 26.8633 44.643 26.7411 44.3986 26.4967L38.3486 17.1467C38.2263 16.78 38.2569 16.4439 38.4402 16.1383C38.6236 15.8328 38.8375 15.68 39.0819 15.68H42.5652V12.38C42.5652 12.1356 42.6569 11.9217 42.8402 11.7383C43.0236 11.555 43.2375 11.4633 43.4819 11.4633C43.7263 11.4633 43.9097 11.555 44.0319 11.7383C44.1541 11.9217 44.2152 12.1356 44.2152 12.38V16.5967C44.2152 16.8411 44.1541 17.055 44.0319 17.2383C43.9097 17.4217 43.7263 17.5133 43.4819 17.5133H40.7319L45.1319 24.48L49.5319 17.5133H46.9652C46.7208 17.5133 46.5069 17.4217 46.3236 17.2383C46.1402 17.055 46.0486 16.8411 46.0486 16.5967V12.38C46.0486 9.93556 45.193 7.88834 43.4819 6.23834C41.7708 4.58834 39.7541 3.76334 37.4319 3.76334C35.3541 3.76334 33.5208 4.37445 31.9319 5.59667C31.8097 5.84111 31.6263 5.93278 31.3819 5.87167C31.1375 5.81056 30.9236 5.68834 30.7402 5.505C30.5569 5.32167 30.4958 5.10778 30.5569 4.86334C30.618 4.61889 30.7097 4.43556 30.8319 4.31334C32.7875 2.72445 34.9875 1.93 37.4319 1.93C40.243 1.93 42.6569 2.93834 44.6736 4.95501C46.6902 6.97167 47.6986 9.44667 47.6986 12.38V15.68H51.1819C51.5486 15.68 51.793 15.8328 51.9152 16.1383C52.0375 16.4439 52.0375 16.78 51.9152 17.1467L45.8652 26.4967C45.743 26.7411 45.4986 26.8633 45.1319 26.8633ZM32.2986 51.7967C29.7319 51.7967 27.4097 51.1856 25.3319 49.9633C23.2541 48.7411 21.6041 47.0911 20.3819 45.0133C19.1597 42.9356 18.5486 40.6133 18.5486 38.0467C18.5486 36.4578 18.793 34.93 19.2819 33.4633C19.4041 33.3411 19.5569 33.2189 19.7402 33.0967C19.9236 32.9744 20.1375 32.9439 20.3819 33.005C20.6263 33.0661 20.7791 33.2189 20.8402 33.4633C20.9013 33.7078 20.9319 33.8911 20.9319 34.0133C20.443 35.3578 20.1986 36.7022 20.1986 38.0467C20.1986 40.2467 20.7486 42.2633 21.8486 44.0967C22.9486 45.93 24.4152 47.3967 26.2486 48.4967C28.0819 49.5967 30.0986 50.1467 32.2986 50.1467C34.4986 50.1467 36.5152 49.5967 38.3486 48.4967C40.1819 47.3967 41.618 45.93 42.6569 44.0967C43.6958 42.2633 44.2152 40.2467 44.2152 38.0467C44.2152 35.1133 43.2986 32.5467 41.4652 30.3467C39.6319 28.1467 37.3097 26.8022 34.4986 26.3133C34.2541 26.1911 34.0708 26.0383 33.9486 25.855C33.8263 25.6717 33.7652 25.4578 33.7652 25.2133C33.7652 24.9689 33.8875 24.7856 34.1319 24.6633C34.3763 24.5411 34.6208 24.5411 34.8652 24.6633C38.043 25.1522 40.7013 26.68 42.8402 29.2467C44.9791 31.8133 46.0486 34.7467 46.0486 38.0467C46.0486 40.6133 45.4375 42.9356 44.2152 45.0133C42.993 47.0911 41.3125 48.7411 39.1736 49.9633C37.0347 51.1856 34.743 51.7967 32.2986 51.7967Z" fill="#7F7E97"/>
</g>
<defs>
<clipPath id="clip0_6512_1909">
<rect width="55.02" height="55" fill="white" transform="matrix(1 0 0 -1 0.480469 55.28)"/>
</clipPath>
</defs>
</svg>
