<svg width="56" height="56" viewBox="0 0 56 56" fill="none" xmlns="http://www.w3.org/2000/svg">
<g clip-path="url(#clip0_6512_1887)">
<path d="M22.4902 6.69669C22.2458 6.45225 22.0013 6.33003 21.7569 6.33003C21.5125 6.33003 21.268 6.4217 21.0236 6.60503C20.7791 6.78836 20.6569 7.0328 20.6569 7.33836C20.6569 7.64392 20.7791 7.91891 21.0236 8.16336C21.268 8.40781 21.5125 8.53003 21.7569 8.53003C22.0013 8.53003 22.2458 8.40781 22.4902 8.16336C22.7347 7.91891 22.8569 7.64392 22.8569 7.33836C22.8569 7.0328 22.7347 6.81892 22.4902 6.69669ZM17.7236 6.33003H13.5069C13.1402 6.33003 12.8652 6.4217 12.6819 6.60503C12.4986 6.78836 12.4069 7.0328 12.4069 7.33836C12.4069 7.64392 12.4986 7.91891 12.6819 8.16336C12.8652 8.40781 13.1402 8.53003 13.5069 8.53003H17.7236C18.0902 8.53003 18.3652 8.40781 18.5486 8.16336C18.7319 7.91891 18.8236 7.64392 18.8236 7.33836C18.8236 7.0328 18.7319 6.78836 18.5486 6.60503C18.3652 6.4217 18.0902 6.33003 17.7236 6.33003ZM18.6402 12.38H13.5069C13.1402 12.38 12.8652 12.4717 12.6819 12.655C12.4986 12.8384 12.4069 13.0828 12.4069 13.3884C12.4069 13.6939 12.4986 13.9384 12.6819 14.1217C12.8652 14.305 13.1402 14.3967 13.5069 14.3967H18.6402C18.8847 14.3967 19.1291 14.305 19.3736 14.1217C19.618 13.9384 19.7402 13.6939 19.7402 13.3884C19.7402 13.0828 19.618 12.8384 19.3736 12.655C19.1291 12.4717 18.8847 12.38 18.6402 12.38ZM55.1236 22.6467L47.9736 17.1467V16.0467C47.9736 15.68 47.8819 15.405 47.6986 15.2217C47.5152 15.0384 47.2708 14.9467 46.9652 14.9467C46.6597 14.9467 46.3847 15.0384 46.1402 15.2217C45.8958 15.405 45.7736 15.68 45.7736 16.0467V30.53L36.9736 39.5134L35.8736 38.5967C34.2847 37.0078 32.3902 36.03 30.1902 35.6634L32.9402 32.9134C33.1847 32.6689 33.3069 32.3939 33.3069 32.0884C33.3069 31.7828 33.1847 31.5689 32.9402 31.4467L29.4569 27.78L45.2236 20.9967C45.468 20.8745 45.6513 20.63 45.7736 20.2634C45.8958 19.8967 45.7736 19.5911 45.4069 19.3467L40.2736 14.2134C40.7625 13.48 41.0069 12.6856 41.0069 11.83C41.0069 10.4856 40.5486 9.38559 39.6319 8.53003C38.7152 7.67447 37.6458 7.2467 36.4236 7.2467C35.568 7.2467 34.7736 7.43003 34.0402 7.7967L28.9069 2.66336C28.6625 2.41891 28.3569 2.32725 27.9902 2.38836C27.6236 2.44947 27.3791 2.66336 27.2569 3.03003L19.9236 20.08L16.0736 23.93C14.9736 25.1523 14.4236 26.5578 14.4236 28.1467C14.4236 29.7356 14.9736 31.08 16.0736 32.18C17.1736 33.28 18.518 33.83 20.1069 33.83C21.6958 33.83 23.1013 33.28 24.3236 32.18L24.6902 31.8134L28.3569 35.48H27.9902C24.9347 35.48 22.3069 36.5189 20.1069 38.5967L19.0069 39.5134L10.2069 30.53V2.48003H22.1236C22.4902 2.48003 22.7652 2.35781 22.9486 2.11336C23.1319 1.86892 23.2236 1.59392 23.2236 1.28836C23.2236 0.982803 23.1319 0.738361 22.9486 0.555027C22.7652 0.371693 22.4902 0.280029 22.1236 0.280029H9.1069C8.74023 0.280029 8.46523 0.371693 8.2819 0.555027C8.09857 0.738361 8.0069 1.01336 8.0069 1.38003V16.9634L0.856901 22.6467C0.612457 22.8911 0.490234 23.1967 0.490234 23.5634V49.78C0.490234 51.2467 1.04023 52.53 2.14023 53.63C3.24023 54.73 4.52357 55.28 5.99023 55.28H49.9902C51.4569 55.28 52.7402 54.73 53.8402 53.63C54.9402 52.53 55.4902 51.2467 55.4902 49.78V23.5634C55.4902 23.1967 55.368 22.8911 55.1236 22.6467ZM47.9736 19.8967L52.7402 23.5634L47.9736 28.33V19.8967ZM36.4236 9.44669C37.1569 9.44669 37.7375 9.66058 38.1652 10.0884C38.593 10.5161 38.8069 11.0967 38.8069 11.83C38.8069 12.0745 38.8069 12.3189 38.8069 12.5634L35.6902 9.44669C35.9347 9.44669 36.1791 9.44669 36.4236 9.44669ZM28.5402 5.41336L33.3069 9.9967L42.8402 19.7134L40.6402 20.63L27.6236 7.61336L28.5402 5.41336ZM26.7069 9.81336L38.4402 21.5467L27.8069 26.13L22.1236 20.4467L26.7069 9.81336ZM22.6736 30.7134C21.9402 31.4467 21.0847 31.8134 20.1069 31.8134C19.1291 31.8134 18.2736 31.4467 17.5402 30.7134C16.8069 29.98 16.4402 29.0939 16.4402 28.055C16.4402 27.0161 16.8069 26.1911 17.5402 25.58L20.8402 22.28L25.9736 27.4134L22.6736 30.7134ZM26.1569 30.3467L27.4402 28.88L30.7402 32.18L29.4569 33.4634L26.1569 30.3467ZM8.0069 19.7134V28.33L3.24023 23.5634L8.0069 19.7134ZM4.52357 52.7134C4.52357 52.7134 4.46246 52.7134 4.34023 52.7134C3.85135 52.4689 3.45412 52.0717 3.14857 51.5217C2.84301 50.9717 2.69023 50.3911 2.69023 49.78V26.13L17.5402 40.98L4.52357 52.7134ZM7.09023 53.08L10.7569 49.9634H18.6402C18.8847 49.9634 19.1291 49.8411 19.3736 49.5967C19.618 49.3523 19.7402 49.0773 19.7402 48.7717C19.7402 48.4661 19.618 48.2217 19.3736 48.0384C19.1291 47.855 18.8847 47.7634 18.6402 47.7634H13.1402L21.5736 40.0634C23.4069 38.3523 25.5458 37.4967 27.9902 37.4967C30.4347 37.4967 32.5736 38.3523 34.4069 40.0634L48.8902 53.08H7.09023ZM53.2902 49.78C53.2902 50.3911 53.1375 50.9717 52.8319 51.5217C52.5263 52.0717 52.1291 52.4689 51.6402 52.7134L38.4402 40.98L53.2902 26.13V49.78ZM47.7902 0.646694C47.5458 0.402248 47.2708 0.280029 46.9652 0.280029C46.6597 0.280029 46.3847 0.402248 46.1402 0.646694L41.9236 5.0467C41.6791 5.16892 41.5569 5.3828 41.5569 5.68836C41.5569 5.99392 41.6486 6.26892 41.8319 6.51336C42.0152 6.75781 42.2597 6.88003 42.5652 6.88003C42.8708 6.88003 43.1458 6.75781 43.3902 6.51336L47.7902 2.11336C47.9125 1.99114 47.9736 1.77725 47.9736 1.47169C47.9736 1.16614 47.9125 0.89114 47.7902 0.646694ZM38.6236 0.280029C38.2569 0.280029 37.9819 0.371693 37.7986 0.555027C37.6152 0.738361 37.5236 1.01336 37.5236 1.38003V3.58003C37.5236 3.82447 37.6152 4.03836 37.7986 4.22169C37.9819 4.40503 38.2263 4.4967 38.5319 4.4967C38.8375 4.4967 39.1125 4.40503 39.3569 4.22169C39.6013 4.03836 39.7236 3.82447 39.7236 3.58003V1.38003C39.7236 1.01336 39.6013 0.738361 39.3569 0.555027C39.1125 0.371693 38.868 0.280029 38.6236 0.280029ZM47.0569 8.53003H44.6736C44.4291 8.53003 44.2152 8.65225 44.0319 8.89669C43.8486 9.14114 43.7569 9.41614 43.7569 9.72169C43.7569 10.0273 43.8486 10.2717 44.0319 10.455C44.2152 10.6384 44.4291 10.73 44.6736 10.73H47.0569C47.3013 10.73 47.5152 10.6384 47.6986 10.455C47.8819 10.2717 47.9736 10.0273 47.9736 9.72169C47.9736 9.41614 47.8819 9.14114 47.6986 8.89669C47.5152 8.65225 47.3013 8.53003 47.0569 8.53003ZM23.7736 48.13C23.5291 47.8856 23.2541 47.7634 22.9486 47.7634C22.643 47.7634 22.3986 47.855 22.2152 48.0384C22.0319 48.2217 21.9402 48.4661 21.9402 48.7717C21.9402 49.0773 22.0319 49.3523 22.2152 49.5967C22.3986 49.8411 22.643 49.9634 22.9486 49.9634C23.2541 49.9634 23.5291 49.8411 23.7736 49.5967C24.018 49.3523 24.1402 49.0773 24.1402 48.7717C24.1402 48.4661 24.018 48.2523 23.7736 48.13Z" fill="#7F7E97"/>
</g>
<defs>
<clipPath id="clip0_6512_1887">
<rect width="55.02" height="55" fill="white" transform="matrix(1 0 0 -1 0.480469 55.28)"/>
</clipPath>
</defs>
</svg>
