<svg width="56" height="56" viewBox="0 0 56 56" fill="none" xmlns="http://www.w3.org/2000/svg">
<g clip-path="url(#clip0_6512_1876)">
<path d="M48.5236 3.03003H7.27357C5.44023 3.03003 3.85135 3.70225 2.5069 5.0467C1.16246 6.39114 0.490234 8.04114 0.490234 9.9967V45.7467C0.490234 47.58 1.16246 49.1689 2.5069 50.5134C3.85135 51.8578 5.44023 52.53 7.27357 52.53H48.5236C50.4791 52.53 52.1291 51.8578 53.4736 50.5134C54.818 49.1689 55.4902 47.58 55.4902 45.7467V9.9967C55.4902 8.04114 54.818 6.39114 53.4736 5.0467C52.1291 3.70225 50.4791 3.03003 48.5236 3.03003ZM7.27357 5.78003H48.5236C49.7458 5.78003 50.7541 6.17725 51.5486 6.97169C52.343 7.76614 52.7402 8.77447 52.7402 9.9967V11.28H3.24023V9.9967C3.24023 8.77447 3.63746 7.76614 4.4319 6.97169C5.22635 6.17725 6.17357 5.78003 7.27357 5.78003ZM48.5236 49.78H7.27357C6.17357 49.78 5.22635 49.3828 4.4319 48.5884C3.63746 47.7939 3.24023 46.8467 3.24023 45.7467V14.03H52.7402V45.7467C52.7402 46.8467 52.343 47.7939 51.5486 48.5884C50.7541 49.3828 49.7458 49.78 48.5236 49.78ZM31.1069 19.53C30.7402 19.53 30.3736 19.6217 30.0069 19.805C29.6402 19.9884 29.4569 20.2634 29.4569 20.63L23.9569 42.63C23.8347 43.1189 23.9569 43.5467 24.3236 43.9134C24.6902 44.28 25.118 44.4023 25.6069 44.28C26.0958 44.1578 26.4013 43.8523 26.5236 43.3634L32.0236 21.18C32.1458 20.8134 32.1152 20.4772 31.9319 20.1717C31.7486 19.8661 31.4736 19.6523 31.1069 19.53ZM19.3736 25.3967C19.1291 25.1523 18.793 25.03 18.3652 25.03C17.9375 25.03 17.6013 25.1523 17.3569 25.3967L11.8569 30.8967C11.6125 31.2634 11.4902 31.63 11.4902 31.9967C11.4902 32.3634 11.6125 32.6689 11.8569 32.9134L17.3569 38.4134C17.6013 38.6578 17.9375 38.78 18.3652 38.78C18.793 38.78 19.1291 38.6578 19.3736 38.4134C19.618 38.1689 19.7402 37.8634 19.7402 37.4967C19.7402 37.13 19.618 36.8245 19.3736 36.58L14.7902 31.9967L19.3736 27.4134C19.618 27.1689 19.7402 26.8634 19.7402 26.4967C19.7402 26.13 19.618 25.7634 19.3736 25.3967ZM38.6236 25.3967C38.3791 25.1523 38.043 25.03 37.6152 25.03C37.1875 25.03 36.8513 25.1828 36.6069 25.4884C36.3625 25.7939 36.2402 26.13 36.2402 26.4967C36.2402 26.8634 36.3625 27.1689 36.6069 27.4134L41.1902 31.9967L36.6069 36.58C36.2402 36.9467 36.118 37.3745 36.2402 37.8634C36.3625 38.3523 36.6986 38.6578 37.2486 38.78C37.7986 38.9023 38.2569 38.78 38.6236 38.4134L44.1236 32.9134C44.368 32.6689 44.4902 32.3634 44.4902 31.9967C44.4902 31.63 44.368 31.2634 44.1236 30.8967L38.6236 25.3967Z" fill="#7F7E97"/>
</g>
<defs>
<clipPath id="clip0_6512_1876">
<rect width="55.02" height="55" fill="white" transform="matrix(1 0 0 -1 0.480469 55.28)"/>
</clipPath>
</defs>
</svg>
