<svg width="56" height="56" viewBox="0 0 56 56" fill="none" xmlns="http://www.w3.org/2000/svg">
<g clip-path="url(#clip0_6512_1898)">
<path d="M53.2902 17.1467C52.6791 16.2911 51.9458 15.6189 51.0902 15.13C50.2347 14.6411 49.318 14.3967 48.3402 14.3967H47.9736L39.5402 28.33V19.7134C39.5402 16.2911 38.6541 13.0828 36.8819 10.0884C35.1097 7.09392 32.7263 4.71058 29.7319 2.93836C26.7375 1.16614 23.4986 0.280029 20.0152 0.280029C16.5319 0.280029 13.293 1.16614 10.2986 2.93836C7.30412 4.71058 4.92079 7.09392 3.14857 10.0884C1.37635 13.0828 0.490234 16.2911 0.490234 19.7134V41.8967C0.490234 42.63 0.765234 43.2717 1.31523 43.8217C1.86523 44.3717 2.5069 44.6467 3.24023 44.6467H17.1736C15.218 45.6245 13.1402 46.3578 10.9402 46.8467C10.2069 47.0911 9.62635 47.4884 9.19857 48.0384C8.77079 48.5884 8.5569 49.23 8.5569 49.9634C8.5569 50.6967 8.74023 51.3689 9.1069 51.98C9.84023 53.08 10.7875 53.905 11.9486 54.455C13.1097 55.005 14.3625 55.28 15.7069 55.28H30.3736C31.4736 55.28 32.4819 55.0356 33.3986 54.5467C34.3152 54.0578 35.0791 53.3856 35.6902 52.53C37.0347 50.4523 38.1347 48.3134 38.9902 46.1134L39.5402 44.6467C40.0291 43.0578 40.7013 41.5911 41.5569 40.2467L43.3902 37.13C43.5125 36.7634 43.6958 36.58 43.9402 36.58C44.1847 36.58 44.3986 36.6717 44.5819 36.855C44.7652 37.0384 44.8569 37.2523 44.8569 37.4967V55.28H50.1736V47.3967C50.1736 45.0745 50.418 42.6911 50.9069 40.2467V40.0634C51.518 36.7634 52.5569 33.6467 54.0236 30.7134C55.0013 28.88 55.4902 26.9245 55.4902 24.8467V24.48C55.4902 21.7911 54.7569 19.3467 53.2902 17.1467ZM19.9236 2.11336C23.2236 2.11336 26.218 2.90781 28.9069 4.4967C31.5958 6.08558 33.7347 8.22447 35.3236 10.9134C36.9125 13.6022 37.7069 16.5356 37.7069 19.7134H36.0569C36.0569 16.9023 35.3236 14.2745 33.8569 11.83C32.3902 9.38559 30.4347 7.43003 27.9902 5.96336C25.5458 4.4967 22.8875 3.76336 20.0152 3.76336C17.143 3.76336 14.4847 4.4967 12.0402 5.96336C9.59579 7.43003 7.64023 9.38559 6.17357 11.83C4.7069 14.2745 3.97357 16.9023 3.97357 19.7134H2.32357C2.32357 16.5356 3.11801 13.6022 4.7069 10.9134C6.29579 8.22447 8.43468 6.08558 11.1236 4.4967C13.8125 2.90781 16.7458 2.11336 19.9236 2.11336ZM34.2236 19.7134H5.8069C5.8069 17.1467 6.44857 14.7939 7.7319 12.655C9.01523 10.5161 10.7263 8.80503 12.8652 7.52169C15.0041 6.23836 17.3569 5.59669 19.9236 5.59669C22.4902 5.59669 24.8736 6.23836 27.0736 7.52169C29.2736 8.80503 31.0152 10.5161 32.2986 12.655C33.5819 14.7939 34.2236 17.1467 34.2236 19.7134ZM2.32357 21.5467H37.7069V27.9634L25.2402 31.08V26.8634H14.6069V31.08L2.32357 27.9634V21.5467ZM16.4402 30.53V28.6967H23.5902V30.53H16.4402ZM23.5902 32.18V34.93C23.5902 35.1745 23.4986 35.3884 23.3152 35.5717C23.1319 35.755 22.918 35.8467 22.6736 35.8467H17.3569C17.1125 35.8467 16.8986 35.755 16.7152 35.5717C16.5319 35.3884 16.4402 35.1745 16.4402 34.93V32.18H23.5902ZM3.24023 42.8134C2.99579 42.8134 2.7819 42.7217 2.59857 42.5384C2.41523 42.355 2.32357 42.1411 2.32357 41.8967V29.7967L14.6069 32.9134V34.93C14.6069 35.6634 14.8819 36.2745 15.4319 36.7634C15.9819 37.2523 16.6236 37.4967 17.3569 37.4967H22.6736C23.4069 37.4967 24.018 37.2523 24.5069 36.7634C24.9958 36.2745 25.2402 35.6634 25.2402 34.93V32.9134L37.7069 29.7967V31.2634L36.4236 33.4634C35.0791 35.7856 33.4291 37.9245 31.4736 39.88C30.1291 41.2245 28.418 41.8967 26.3402 41.8967C25.2402 41.8967 24.1402 41.6523 23.0402 41.1634L22.4902 40.98L19.9236 42.9967L3.24023 42.8134ZM44.3069 34.93H44.1236C43.0236 34.93 42.2291 35.3578 41.7402 36.2134L39.9069 39.33C39.1736 40.7967 38.5013 42.3245 37.8902 43.9134L36.4236 47.3967C34.2236 48.7411 31.9013 49.7189 29.4569 50.33C27.868 50.6967 26.218 50.88 24.5069 50.88H16.4402V52.53H24.5069C26.3402 52.53 28.1125 52.3467 29.8236 51.98C31.5347 51.6134 33.2458 51.0023 34.9569 50.1467L34.2236 51.6134C33.7347 52.2245 33.1847 52.6828 32.5736 52.9884C31.9625 53.2939 31.2291 53.4467 30.3736 53.4467H15.7069C14.6069 53.4467 13.5069 53.1411 12.4069 52.53H14.6069V50.88H10.5736C10.3291 50.6356 10.2069 50.3606 10.2069 50.055C10.2069 49.7495 10.3291 49.4439 10.5736 49.1384C10.818 48.8328 11.0625 48.68 11.3069 48.68C15.5847 47.7023 19.3736 45.8078 22.6736 42.9967H22.8569C23.9569 43.4856 25.118 43.73 26.3402 43.73C28.9069 43.73 31.0458 42.8745 32.7569 41.1634C34.8347 39.0856 36.5458 36.8245 37.8902 34.38L48.8902 16.23C50.1125 16.3522 51.0902 16.9634 51.8236 18.0634C52.6791 19.4078 53.2291 20.8745 53.4736 22.4634C50.0513 26.3745 46.9958 30.53 44.3069 34.93ZM52.5569 29.98C50.968 33.0356 49.868 36.2745 49.2569 39.6967L49.0736 39.88C48.5847 42.4467 48.3402 44.9523 48.3402 47.3967V53.4467H46.6902V37.4967C46.6902 36.7634 46.4458 36.1523 45.9569 35.6634C48.1569 31.9967 50.7236 28.4523 53.6569 25.03C53.6569 26.7411 53.2902 28.3911 52.5569 29.98Z" fill="#7F7E97"/>
</g>
<defs>
<clipPath id="clip0_6512_1898">
<rect width="55.02" height="55" fill="white" transform="matrix(1 0 0 -1 0.480469 55.28)"/>
</clipPath>
</defs>
</svg>
